<svg width="31.023mm" height="30.305mm" version="1.1" viewBox="0 0 31.023 30.305" xmlns="http://www.w3.org/2000/svg">
 <g transform="translate(-33.475 -85.537)">
  <rect x="33.475" y="85.537" width="31.023" height="30.305" ry="6.1402" opacity=".95" stroke-width=".26458"/>
  <g transform="matrix(.25989 0 0 .25989 35.992 86.629)" fill="#fff" featurekey="5TMTKC-0">
   <path d="m86.883 84.126c0-0.817-0.242-2.015-1.34-3.245l-33.313-65.792c-0.426-0.841-1.288-1.371-2.23-1.371s-1.805 0.53-2.23 1.371l-33.313 65.792c-1.098 1.229-1.34 2.428-1.34 3.245 0 10.068 33.107 10.359 36.883 10.359s36.883-0.291 36.883-10.359zm-68.61-5e-3c0.194-0.191 0.356-0.412 0.479-0.655l31.248-61.713 31.247 61.713c0.123 0.243 0.285 0.464 0.479 0.655l0.029 0.029c-1.766 2.033-13.152 5.335-31.755 5.335s-29.989-3.302-31.756-5.335c0.01-9e-3 0.02-0.019 0.029-0.029z"/>
  </g>
 </g>
</svg>
