<svg width="70.799mm" height="78.681mm" version="1.1" viewBox="0 0 250.86 278.79" xmlns="http://www.w3.org/2000/svg">
 <g transform="translate(-289.51 319.17)">
  <g transform="matrix(.44194 0 0 .44194 -115.1 -96.128)">
   <g fill="#3c3a39">
    <path d="m1273.1 121.39c0-0.23533 2.25-5.7487 5-12.252 2.75-6.5032 5-12.511 5-13.35s-4.5-13.281-10-27.649-10-26.636-10-27.263c0-0.75571 2.6359-1.1396 7.8247-1.1396h7.8248l6.3355 19.75c3.4845 10.863 6.4836 19.3 6.6647 18.75s2.9575-9.325 6.1699-19.5l5.8406-18.5 8.1699-0.29044c4.4934-0.15975 8.1699-0.10202 8.1699 0.12828 0 0.60586-25.439 68.039-28.355 75.162l-2.456 6-8.0946 0.29044c-4.452 0.15975-8.0945 0.0979-8.0945-0.13743z"/>
    <path d="m939.44 99.749c-7.9996-1.6819-13.667-6.0086-17.677-13.495-1.8706-3.4925-2.1495-5.6347-2.1495-16.513 0-13.705 1.0924-17.282 7.1495-23.41 6.5943-6.6713 20.176-9.0217 33.1-5.7283l5.25 1.3378v13.017l-2.75-0.70981c-5.4351-1.4029-12.827-2.0424-16.964-1.4676-7.6023 1.0563-11.286 6.5922-11.286 16.961 0 10.077 3.3601 15.395 10.78 17.062 3.5737 0.80295 8.5531 0.32358 17.521-1.6867l2.801-0.62789-0.301 6.2797c-0.3001 6.2609-0.3121 6.2835-4.0179 7.5625-5.0468 1.7418-16.361 2.4897-21.457 1.4183z"/>
    <path d="m1038 99.786c-8.4344-1.5327-13.351-5.2611-16.561-12.559-1.4469-3.2893-1.8221-7.7897-2.1456-25.736l-0.3922-21.75h15.082l0.3072 20.422c0.299 19.878 0.37 20.489 2.6663 22.931 4.5765 4.8668 16.125 4.0382 18.848-1.3524 0.8887-1.759 1.2674-8.3536 1.2778-22.25l0.015-19.75h15v20.319c0 23.274-1.0001 28.615-6.3627 33.977-5.1144 5.1144-17.312 7.6429-27.734 5.749z"/>
    <path d="m1168.6 100.31c-0.55-0.22129-2.6228-0.67246-4.6063-1.0026-5.7644-0.95945-12.195-5.8698-15.449-11.796-2.5652-4.6724-2.9333-6.453-3.2598-15.767-0.3091-8.8171-0.033-11.391 1.7247-16.062 4.1689-11.078 12.353-16.316 25.59-16.377 4.4-0.0204 10.362 0.56492 13.25 1.3007l5.25 1.3378v13.017l-2.75-0.70981c-5.4352-1.4029-12.827-2.0424-16.964-1.4676-7.6023 1.0563-11.286 6.5922-11.286 16.961 0 15.982 8.248 20.494 28.275 15.467l2.7253-0.68402v12.979l-4.6466 1.17c-5.0153 1.2629-16.225 2.2886-17.853 1.6335z"/>
    <path transform="translate(95.686 -250.05)" d="m1297.8 289.41c-6.8293-0.016-8.9599 0.4124-13.758 2.7598-10.098 4.9403-13.955 12.574-13.955 27.621 0 17.51 6.5367 27.094 20.441 29.971 5.4561 1.1287 16.243 0.29245 20.854-1.6172 9.7724-4.0473 15-13.93 15-28.354 0-11.509-2.3733-18.243-8.373-23.773-5.4883-5.059-10.15-6.5838-20.209-6.6074zm-0.051 12.516c0.5866 0.0134 1.1965 0.0505 1.8301 0.11133 8.3087 0.79836 11.791 6.0406 11.791 17.754 0 7.3064-1.4451 12.141-4.4805 14.992-3.4962 3.2845-11.8 3.8806-16.129 1.1582-4.0383-2.5394-5.3789-6.6123-5.3789-16.33 0-12.676 3.5685-17.886 12.367-17.686z"/>
    <path d="m978.35 70.991 0.2658-27.75 5.2622-1.7458c2.8943-0.96018 9.7568-2.0403 15.25-2.4003l9.9878-0.65454v13.157l-5.75 0.62454c-3.1625 0.3435-6.7625 0.83445-8 1.091l-2.25 0.46646v44.962h-15.032l0.2658-27.75z"/>
    <path d="m1084.1 73.692c0-27.203 0.3847-29.438 5.4662-31.753 8.2137-3.7424 29.204-3.9375 36.258-0.33704 9.3308 4.7622 10.275 7.9897 10.275 35.108v22.032h-14v-18.851c0-10.584-0.4604-20.171-1.0498-21.862-1.35-3.8728-4.5768-5.2871-12.063-5.2871-10.407 0-9.8872-1.2643-9.8872 24.035v21.965h-15v-25.05z"/>
    <path d="m1202.1 58.241v-40.5h16v22.79l3.75-0.87083c5.3479-1.2419 10.048-1.1172 15.991 0.42425 7.1341 1.8506 11.716 5.2637 14.977 11.157 2.739 4.9493 2.7706 5.2154 3.1239 26.25l0.3569 21.25h-15.199l-0.01-17.75c0-9.7625-0.474-19.437-1.0466-21.498-1.3426-4.8361-4.9788-6.7516-12.816-6.7516-9.8431 0-9.1314-1.8398-9.1314 23.607v22.393h-16v-40.5z"/>
    <path d="m1329.3 70.991 0.2658-27.75 5.2622-1.7458c2.8943-0.96018 9.7568-2.0403 15.25-2.4003l9.9878-0.65454v13.157l-5.75 0.62454c-3.1625 0.3435-6.7625 0.83445-8 1.091l-2.25 0.46646v44.962h-15.032l0.2658-27.75z"/>
    <path d="m1433.1 58.241v-40.5h16v81h-16v-40.5z"/>
    <path d="m1464.1 58.241v-40.5h15v81h-15v-40.5z"/>
   </g>
   <path d="m1176.6-29.967c-8.009-0.7461-29.081-4.3968-36.897-6.3925-67.574-17.253-124.8-63.526-155.08-125.4-16.602-33.92-23.521-64.254-23.494-103 0.027-38.793 7.0526-69.735 23.386-103 12.233-24.915 26.304-44.433 46.28-64.195 37.366-36.967 84.697-59.851 138.31-66.872 17.528-2.2952 54.63-1.5484 71 1.4291 34.044 6.1923 64.609 18.354 92 36.607 56.906 37.922 93.817 95.918 103.44 162.53 2.0602 14.262 3.2527 43.941 1.8651 46.42-0.7568 1.3524-1.1502-0.0645-1.6458-5.9267-2.4567-29.063-15.028-64.204-32.373-90.493-52.719-79.905-151.08-113.81-242.15-83.458-70.29 23.424-123.12 82.852-137.62 154.81-7.1694 35.582-5.018 70.459 6.4702 104.89 20.26 60.722 68.75 109.23 130.24 130.3 14.502 4.9683 33.127 9.1082 45.409 10.094 14.706 1.18 11 2.3023-7.1446 2.1635-9.9-0.0757-19.8-0.30538-22-0.51033z" fill="#f78b24"/>
   <path d="m1227.1-59.325c-76.014-5.5365-139-62.214-152.14-136.91-2.3924-13.597-2.8534-39.013-0.9344-51.522 11.396-74.282 68.534-130.64 143.07-141.11 15.108-2.1231 42.03-1.3789 56.5 1.5618 12.586 2.5579 26.539 7.0986 37.5 12.204l8.5 3.9589-8 3.778c-28.869 13.634-46.688 45.523-42.505 76.072 4.1886 30.592 25.344 54.603 55.714 63.235 10.934 3.1076 27.653 3.1066 38.591-2e-3 14.143-4.0196 25.234-10.594 35.329-20.939 3.4078-3.4927 6.4155-5.9917 6.6838-5.5534 0.2683 0.43833 1.0472 5.2538 1.7309 10.701 1.6868 13.439 0.6963 39.008-2.0056 51.773-8.6054 40.656-30.288 74.782-63.537 99.996-31.469 23.865-73.1 35.776-114.5 32.761z" fill="#f78b24"/>
  </g>
 </g>
</svg>