<svg width="134.65" height="134.66" version="1.1" viewBox="0 0 134.65 134.66" xml:space="preserve" xmlns="http://www.w3.org/2000/svg"><style type="text/css">.st0{fill:#F5B919;}</style><path class="st0" d="m105.97 67.328v-0.0032c0-7.3045-4.1209-13.641-10.168-16.818l-48.896-22.193c-0.32488-0.17221-0.68545-0.26802-1.0769-0.26802-1.2751 0-2.3163 1.0363-2.3163 2.313v13.012c0 1.7364 1.0282 3.2324 2.5047 3.9162l39.769 16.516c1.3725 0.57986 2.3341 1.9394 2.3341 3.5247v0.0033c0 1.5837-0.96161 2.9416-2.3341 3.5231l-39.769 16.516c-1.4765 0.68381-2.5047 2.1782-2.5047 3.9146v13.014c0 1.2751 1.0412 2.313 2.3163 2.313 0.39145 0 0.75202-0.0975 1.0769-0.26639l48.896-22.193c6.0473-3.1771 10.168-9.5152 10.168-16.82z"/><path class="st0" d="m134.65 67.332c0 37.179-30.142 67.326-67.329 67.326-37.184 0-67.324-30.147-67.324-67.326 0-37.188 30.141-67.332 67.324-67.332 37.187 0 67.329 30.144 67.329 67.332m-67.329-55.783c-31.099 0-56.318 24.974-56.318 55.783 0 30.797 25.219 55.775 56.318 55.775 31.099 0 56.316-24.978 56.316-55.775 0-30.81-25.217-55.783-56.316-55.783"/></svg>